<svg id="Group_24" data-name="Group 24" xmlns="http://www.w3.org/2000/svg" width="41.8" height="41.8" viewBox="0 0 41.8 41.8"><defs><style>.cls-1{fill:none;}.cls-2{fill:#fcb040;}</style></defs><title>instagram</title><path id="Path_7" data-name="Path 7" class="cls-1" d="M-.9-.9H40.9V40.9H-.9Z" transform="translate(0.9 0.9)"/><path class="cls-2" d="M38.6231,12.2877a13.6584,13.6584,0,0,0-.872-4.5431A9.2043,9.2043,0,0,0,35.59,4.4252a9.1516,9.1516,0,0,0-3.3121-2.1543,13.6953,13.6953,0,0,0-4.5431-.872c-2.0078-.0953-2.6453-.1172-7.7306-.1172s-5.7229.0219-7.716.11a13.6559,13.6559,0,0,0-4.5431.872A9.17,9.17,0,0,0,4.4252,4.4252,9.1508,9.1508,0,0,0,2.2709,7.7373a13.6953,13.6953,0,0,0-.872,4.5431c-.0953,2.0077-.1172,2.6379-.1172,7.7233s.0219,5.7228.11,7.7159a13.6553,13.6553,0,0,0,.872,4.5431,9.2987,9.2987,0,0,0,2.1616,3.3194,9.1508,9.1508,0,0,0,3.3121,2.1543,13.6953,13.6953,0,0,0,4.5431.872c1.9931.088,2.6306.11,7.7159.11s5.7229-.0219,7.716-.11a13.6559,13.6559,0,0,0,4.5431-.872,9.59,9.59,0,0,0,5.481-5.481,13.6953,13.6953,0,0,0,.872-4.5431c.088-2,.11-2.6306.11-7.716S38.711,14.2881,38.6231,12.2877ZM35.2524,27.58a10.2259,10.2259,0,0,1-.6448,3.4733,6.2182,6.2182,0,0,1-3.5539,3.5539,10.3117,10.3117,0,0,1-3.4733.6448c-1.9785.0879-2.5647.11-7.5621.11s-5.5983-.022-7.5621-.11a10.2246,10.2246,0,0,1-3.4732-.6448,5.686,5.686,0,0,1-2.147-1.4,5.86,5.86,0,0,1-1.4-2.147,10.3085,10.3085,0,0,1-.6448-3.4733c-.0879-1.9784-.11-2.5646-.11-7.5621s.022-5.5982.11-7.562A10.2234,10.2234,0,0,1,5.4364,8.99a5.5415,5.5415,0,0,1,1.4-2.1543,5.86,5.86,0,0,1,2.147-1.4,10.3078,10.3078,0,0,1,3.4732-.6448c1.9785-.088,2.5647-.11,7.5621-.11,5.0048,0,5.5983.0219,7.5621.11a10.2234,10.2234,0,0,1,3.4733.6448,5.6852,5.6852,0,0,1,2.147,1.4A5.8283,5.8283,0,0,1,34.6,8.99a10.3078,10.3078,0,0,1,.6449,3.4733c.0879,1.9784.11,2.5646.11,7.562S35.34,25.6019,35.2524,27.58Z" transform="translate(0.9 0.9)"/><path class="cls-2" d="M20.0037,10.39a9.6175,9.6175,0,1,0,9.6211,9.6138A9.6226,9.6226,0,0,0,20.0037,10.39Zm0,15.8569a6.2431,6.2431,0,1,1,6.2431-6.2431A6.2435,6.2435,0,0,1,20.0037,26.2468Z" transform="translate(0.9 0.9)"/><path class="cls-2" d="M32.2554,10.0088a2.2423,2.2423,0,1,1-2.2422-2.2422A2.2423,2.2423,0,0,1,32.2554,10.0088Z" transform="translate(0.9 0.9)"/></svg>